<?xml version="1.0" encoding="UTF-8" standalone="no"?>
<svg
   id="SVGRoot"
   version="1.1"
   viewBox="0 0 16 16"
   height="16px"
   width="16px"
   sodipodi:docname="label_auto.svg"
   inkscape:version="1.3.2 (091e20e, 2023-11-25)"
   xmlns:inkscape="http://www.inkscape.org/namespaces/inkscape"
   xmlns:sodipodi="http://sodipodi.sourceforge.net/DTD/sodipodi-0.dtd"
   xmlns="http://www.w3.org/2000/svg"
   xmlns:svg="http://www.w3.org/2000/svg"
   xmlns:rdf="http://www.w3.org/1999/02/22-rdf-syntax-ns#"
   xmlns:cc="http://creativecommons.org/ns#"
   xmlns:dc="http://purl.org/dc/elements/1.1/">
  <sodipodi:namedview
     id="namedview1"
     pagecolor="#ffffff"
     bordercolor="#666666"
     borderopacity="1.0"
     inkscape:showpageshadow="2"
     inkscape:pageopacity="0.0"
     inkscape:pagecheckerboard="0"
     inkscape:deskcolor="#d1d1d1"
     inkscape:zoom="26.125"
     inkscape:cx="3.3684211"
     inkscape:cy="12.937799"
     inkscape:window-width="1920"
     inkscape:window-height="1018"
     inkscape:window-x="0"
     inkscape:window-y="34"
     inkscape:window-maximized="1"
     inkscape:current-layer="SVGRoot" />
  <defs
     id="defs8417" />
  <metadata
     id="metadata8420">
    <rdf:RDF>
      <cc:Work
         rdf:about="">
        <dc:format>image/svg+xml</dc:format>
        <dc:type
           rdf:resource="http://purl.org/dc/dcmitype/StillImage" />
        <dc:title />
      </cc:Work>
    </rdf:RDF>
  </metadata>
  <path
     id="path4862"
     d="M 7.4923682,0.81232423 1.078125,3.7851562 V 14.996094 H 14.904297 V 3.7851562 L 8.4591651,0.81232423 Z M 8,2.1738281 C 8.7735038,2.1736123 9.4006065,2.800715 9.4003906,3.5742188 9.4006064,4.3477226 8.7735038,4.9748252 8,4.9746094 7.2264962,4.9748252 6.5993936,4.3477226 6.5996094,3.5742188 6.5993935,2.800715 7.2264962,2.1736123 8,2.1738281 Z"
     style="fill:#efce7d;fill-opacity:1;fill-rule:evenodd;stroke:#ad6513;stroke-width:1px;stroke-linecap:butt;stroke-linejoin:miter;stroke-opacity:1" />
  <rect
     style="color:#000000;clip-rule:nonzero;display:inline;overflow:visible;visibility:visible;opacity:1;isolation:auto;mix-blend-mode:normal;color-interpolation:sRGB;color-interpolation-filters:linearRGB;solid-color:#000000;solid-opacity:1;fill:#ffffff;fill-opacity:1;fill-rule:nonzero;stroke:#9e9d9c;stroke-width:0.52865905;stroke-linecap:butt;stroke-linejoin:miter;stroke-miterlimit:4;stroke-dasharray:none;stroke-dashoffset:0;stroke-opacity:1;paint-order:markers fill stroke;color-rendering:auto;image-rendering:auto;shape-rendering:auto;text-rendering:auto;enable-background:accumulate"
     id="rect8468"
     width="10.784651"
     height="7.4120274"
     x="2.6076746"
     y="6.3437648" />
  <path
     id="path1"
     style="fill:#827e7b;stroke-width:1.57066;paint-order:markers fill stroke"
     d="M 7.0488786,7.0451255 V 8.134313 A 2.1421152,2.1421152 0 0 0 6.8159794,8.2668006 L 5.8746201,7.7242988 4.9234987,9.3713287 5.8676471,9.9180143 a 2.1421152,2.1421152 0 0 0 -0.00976,0.1310927 2.1421152,2.1421152 0 0 0 0.00976,0.133882 l -0.9441484,0.545292 0.9511214,1.64703 0.9413593,-0.542502 a 2.1421152,2.1421152 0 0 0 0.2328992,0.132487 v 1.089187 h 1.9022428 v -1.089187 a 2.1421152,2.1421152 0 0 0 0.2328993,-0.132487 l 0.9413593,0.542502 0.951122,-1.64703 -0.944149,-0.545292 a 2.1421152,2.1421152 0 0 0 0.0098,-0.133882 2.1421152,2.1421152 0 0 0 -0.0098,-0.1310927 L 11.076502,9.3713287 10.12538,7.7242988 9.1840207,8.2668006 A 2.1421152,2.1421152 0 0 0 8.9511214,8.134313 V 7.0451255 Z M 8,9.263944 A 0.78544223,0.78544223 0 0 1 8.7865579,10.049107 0.78544223,0.78544223 0 0 1 8,10.834271 0.78544223,0.78544223 0 0 1 7.2148367,10.049107 0.78544223,0.78544223 0 0 1 8,9.263944 Z" />
</svg>
